<svg xmlns="http://www.w3.org/2000/svg" width="311.715" height="371.696" viewBox="0 0 311.715 371.696">
  <defs>
    <style>
      .cls-1 {
        fill: #574e41;
      }

      .cls-2 {
        fill: #0c1e2d;
      }

      .cls-3 {
        fill: #fff;
      }

      .cls-4 {
        fill: none;
        stroke: #0c1e2d;
        stroke-miterlimit: 10;
      }

      .cls-5 {
        fill: #58251c;
      }
    </style>
  </defs>
  <g id="Layer_2" data-name="Layer 2" transform="translate(-23.615 0.028)">
    <g id="Layer_1" data-name="Layer 1">
      <path id="Path_92" data-name="Path 92" class="cls-1" d="M78.82,41.68a4.92,4.92,0,0,0-.11-.77c-.09-.42-.19-.83-.3-1.24A11.769,11.769,0,0,0,78,38.44a10.7,10.7,0,0,0-1.09-2,9.79,9.79,0,0,0-2.29-2.34,10.05,10.05,0,0,0-2.1-1.17.3.3,0,0,1-.21-.32c0-.61,0-1.21,0-1.82a.31.31,0,0,1,.2-.32,2,2,0,0,0,1.14-1.82V26.94a1.71,1.71,0,0,0-.2-.89,1.83,1.83,0,0,0-1.64-1.08H66a1.61,1.61,0,0,0-.88.25,1.7,1.7,0,0,0-.9,1.42v2.32a1.73,1.73,0,0,0,1.07,1.52.3.3,0,0,1,.21.31c0,.64,0,1.29,0,1.93a.32.32,0,0,1-.21.32A15.22,15.22,0,0,0,63,34.29a11.1,11.1,0,0,0-2.34,2.2,9.34,9.34,0,0,0-1.27,2.18c-.13.31-.23.63-.33.95a12.14,12.14,0,0,1,1.34.7h.22a3.45,3.45,0,0,1,.12-.43,6.88,6.88,0,0,1,.76-1.68,8.27,8.27,0,0,1,1.8-2.06A9.79,9.79,0,0,1,65.16,35c.35-.17.69-.36,1-.52a1.65,1.65,0,0,1,.53-.13H71.1a2,2,0,0,1,.8.25,8.251,8.251,0,0,1,1.54.85,8,8,0,0,1,2,1.93,8.319,8.319,0,0,1,1,1.7,8.771,8.771,0,0,1,.43,1.25,16.72,16.72,0,0,1,.35,2A21.761,21.761,0,0,1,77.24,45a.58.58,0,0,1-.12.36,5.74,5.74,0,0,0-.84,1.56,4.5,4.5,0,0,0-.18.7,13.769,13.769,0,0,1,1.68,1.14,2.44,2.44,0,0,1,.11-1.31,4.09,4.09,0,0,1,.65-1.08,1.66,1.66,0,0,0,.37-.92,19.589,19.589,0,0,0-.09-3.77Zm-8.25-9.07H67.2V30.67h3.37a7.87,7.87,0,0,1,0,1.94Zm1.31-4c0,.29-.06.34-.34.34H66.18c-.27,0-.35-.08-.35-.37V27.04c0-.28,0-.33.34-.33h5.69v.24Z"/>
      <path id="Path_93" data-name="Path 93" class="cls-2" d="M82.74,50.05A5.81,5.81,0,0,1,84,49.71l.5-.09V45.41A15.78,15.78,0,0,1,84.68,43c.09-.49.15-1,.27-1.47s.34-1.11.52-1.66a12.57,12.57,0,0,1,.93-2.09,14.42,14.42,0,0,1,1.21-1.89A15.36,15.36,0,0,1,90,33.4a1,1,0,0,1,.69-.26h7a2.25,2.25,0,0,1,.77.16c.39.13.79.26,1.17.41a11.722,11.722,0,0,1,1.1.47c.64.32,1.29.64,1.91,1s1.32.8,2,1.25a20.26,20.26,0,0,1,3,2.67c.56-.24,1.12-.46,1.68-.68A24,24,0,0,0,105.55,35a22.72,22.72,0,0,0-3.35-2,16.93,16.93,0,0,0-2-.89l-.89-.34c-.18-.07-.22-.13-.23-.33a1.34,1.34,0,0,1,0-.2V25.93a1.08,1.08,0,0,0-.31-.74.94.94,0,0,0-.66-.2h-8a1.22,1.22,0,0,0-.27,0,.86.86,0,0,0-.21.07.84.84,0,0,0-.48.82c0,.56,0,1.13,0,1.69v3.89a.69.69,0,0,1-.28.6A14.591,14.591,0,0,0,87,33.9c-.32.37-.62.75-.91,1.14a16.936,16.936,0,0,0-2.42,4.73c-.09.25-.17.5-.24.76s-.22.79-.31,1.19-.12.65-.17,1c-.07.52-.13,1-.18,1.58v1.12ZM90.9,26.72c.28-.08,6.26-.07,6.48,0v4.46c-.21.07-6.18.08-6.48,0Z"/>
      <path id="Path_94" data-name="Path 94" class="cls-2" d="M99.07,63h9.59a1,1,0,0,1,.83.32,1.11,1.11,0,0,1,.25.8q0,1.305,0,2.61V75.8a2.779,2.779,0,0,1-.06.58.77.77,0,0,1-.6.63,2,2,0,0,1-.59.08h-19a1.25,1.25,0,0,1-.68-.17,1,1,0,0,1-.45-.87V64.25a2.531,2.531,0,0,1,0-.47.82.82,0,0,1,.62-.69,1.93,1.93,0,0,1,.53-.07ZM90.21,75.27h17.71a.49.49,0,0,0,0-.12V65a.591.591,0,0,0,0-.13h0c-.49-.06-17.49,0-17.69,0Z"/>
      <path id="Path_95" data-name="Path 95" class="cls-2" d="M96.25,41.56c.18.44.3.91.5,1.34.12.25.25.5.38.74L98,43.1l.21-.12.1-.07.33-.18A11.289,11.289,0,0,1,98,41.16a4.19,4.19,0,0,1-.24-1.36.55.55,0,0,1,.72-.58,6.22,6.22,0,0,1,.71.19,4.61,4.61,0,0,1,1.31.66,15.06,15.06,0,0,1,1.5,1.19,11.79,11.79,0,0,1,2.15-.37h0c-.5-.48-1-.92-1.55-1.37a14.25,14.25,0,0,0-1.72-1.19,6.69,6.69,0,0,0-1.62-.72,3.36,3.36,0,0,0-1.3-.14,2.12,2.12,0,0,0-1.5.73,2.28,2.28,0,0,0-.46,1,2.92,2.92,0,0,0,0,1.09,5.57,5.57,0,0,0,.25,1.27Z"/>
      <path id="Path_96" data-name="Path 96" class="cls-1" d="M81,13.4c2.13-3.34,4.17-6.55,6.21-9.77.6-.93,1.18-1.88,1.79-2.8A1.35,1.35,0,0,1,91.09.26l37.24,17.66c1.31.62,1.45,1.14.64,2.35-2.78,4.18-5.55,8.36-8.36,12.52a1,1,0,0,0,0,1.37q4.11,6.14,8.16,12.3c.91,1.37.78,1.79-.74,2.5-2.45,1.14-4.89,2.3-7.36,3.41a1.13,1.13,0,0,0-.79,1.24c.06,5.57.06,11.15.15,16.73a2.09,2.09,0,0,1-1.37,2.24q-18.15,8.445-36.23,17a3.51,3.51,0,0,1-3.48,0Q61.09,81.1,43.15,72.76a2.26,2.26,0,0,1-1.48-2.41c.11-5.54.12-11.08.2-16.63A1.25,1.25,0,0,0,41,52.34c-2.47-1.09-4.91-2.26-7.36-3.41-1.51-.71-1.62-1.1-.67-2.52,2.75-4.12,5.48-8.25,8.25-12.35a1.09,1.09,0,0,0,0-1.45c-2.82-4.16-5.59-8.34-8.37-12.52-.81-1.21-.67-1.69.67-2.33L70.49.39c1.36-.64,1.74-.52,2.57.76l7.38,11.41C80.6,12.8,80.77,13,81,13.4ZM45.92,33.48a3.74,3.74,0,0,0,.4.24q17.09,8,34.17,15.89a1.51,1.51,0,0,0,1.16-.06q16.86-7.87,33.68-15.8c.24-.12.47-.26.79-.44L115.5,33Q98.6,25.11,81.67,17.27a1.89,1.89,0,0,0-1.42.05Q63.48,25.15,46.74,33C46.49,33.16,46.24,33.31,45.92,33.48Zm72,20.4c-.4.16-.65.24-.87.35L91.22,66.33c-1.25.59-1.45.56-2.23-.61-2.06-3.13-4.09-6.27-6.14-9.4-.15-.23-.32-.43-.55-.74v31.7c.3-.12.52-.19.72-.29q17.07-8.05,34.16-16.12a1.1,1.1,0,0,0,.73-1.19V58.83Zm-38.3,1.73c-.34.49-.52.74-.69,1q-3,4.65-6,9.31c-.64,1-.93,1.08-2,.59Q60,61.38,49,56.23L44.21,54a5.69,5.69,0,0,0-.09.58C44.07,59.72,44,64.84,44,70a1.23,1.23,0,0,0,.67.87q17,8.17,34.11,16.29c.25.11.51.19.81.31Zm47.23-35.94-36.12-17-8.2,12.45,36,17ZM35.38,47.21c.15.13.19.19.24.22Q53.2,55.71,70.77,64c.63.29.84.06,1.14-.42q3.65-5.73,7.31-11.45a4.778,4.778,0,0,0,.22-.45L43.52,34.85Zm83-12.36L82.53,51.7l8.18,12.55,36-17ZM71.3,2.67,35.17,19.51,43.52,32,79.34,15.3Z"/>
      <path id="Path_97" data-name="Path 97" class="cls-2" d="M82.63,212.77a1.94,1.94,0,0,0-1.43.61,2.18,2.18,0,0,0,0,3,2.03,2.03,0,0,0,3.46-1.48,2.1,2.1,0,0,0-.59-1.5,1.94,1.94,0,0,0-1.44-.63Z"/>
      <path id="Path_98" data-name="Path 98" class="cls-2" d="M117.93,201.51a51.2,51.2,0,0,1-1.72-16.08,26.58,26.58,0,0,1-5.17,1.15c-6.8.78-11.48-1.49-21.25-5.46-9.36-3.8-14.14-5.72-19-6.89a72.119,72.119,0,0,0-15.22-2,121.64,121.64,0,0,1,4,17.52,71.24,71.24,0,0,1,1.15,13.49,70.2,70.2,0,0,1-3.16,18.67A92.32,92.32,0,0,1,53,234.53a96.441,96.441,0,0,1,23.83,1.15c6.77,1.18,11.94,2.13,17.8,5.45a42.23,42.23,0,0,1,14.65,14.07,47.659,47.659,0,0,0,9.18-8c3.32-3.75,8.06-9.12,9.19-15.79C129.37,221.53,122.3,217.35,117.93,201.51ZM87.83,220a7.39,7.39,0,0,1-10.39,0,7,7,0,0,1-2.16-5.15,6.9,6.9,0,0,1,2.16-5.16,7.34,7.34,0,0,1,5.33-2.1,6.89,6.89,0,0,1,5.09,2.14,7.23,7.23,0,0,1,0,10.28Zm9.59,1.85H92.17V202.73h5.25Zm3.47,0-3.28-9.12,2.39-4.86h5.45L102.89,213l3.81,8.89Z"/>
      <rect id="Rectangle_46" data-name="Rectangle 46" class="cls-2" width="59.59" height="120.99" rx="8.97" transform="translate(63.79 5.02)"/>
      <rect id="Rectangle_47" data-name="Rectangle 47" class="cls-3" width="57.79" height="119.36" rx="7.87" transform="translate(64.69 5.92)"/>
      <rect id="Rectangle_48" data-name="Rectangle 48" class="cls-2" width="56.7" height="117.74" rx="7.8" transform="translate(65.23 6.64)"/>
      <path id="Path_99" data-name="Path 99" class="cls-3" d="M113.85,9h-5.46v1.1a3.54,3.54,0,0,1-3.54,3.54H82.14A3.54,3.54,0,0,1,78.6,10.1V9h-.66c-4.25,0-4.21-.07-4.81,0A6.74,6.74,0,0,0,69,10.68a5.9,5.9,0,0,0-1.73,4.18V117a5.92,5.92,0,0,0,5.91,5.91H113.9a5.92,5.92,0,0,0,5.92-5.91V14.86A5.91,5.91,0,0,0,113.85,9Z"/>
      <path id="Path_100" data-name="Path 100" class="cls-4" d="M102.56,100.3h8.67V89.9"/>
      <path id="Path_101" data-name="Path 101" class="cls-4" d="M102.56,31.5h8.67V41.91"/>
      <path id="Path_102" data-name="Path 102" class="cls-4" d="M85.64,31.5H76.97V41.91"/>
      <path id="Path_103" data-name="Path 103" class="cls-4" d="M85.64,100.3H76.97V89.9"/>
      <path id="Path_104" data-name="Path 104" class="cls-1" d="M92.25,62.5a2.7,2.7,0,0,0-.06-.41,2.474,2.474,0,0,0-.16-.65c-.06-.21-.12-.44-.2-.65a6.05,6.05,0,0,0-.58-1.06,5,5,0,0,0-1.19-1.23A5.47,5.47,0,0,0,89,57.89a.16.16,0,0,1-.11-.17v-.95A.16.16,0,0,1,89,56.6a1.06,1.06,0,0,0,.6-1v-.89a1.037,1.037,0,0,0-.97-1.04H85.51a.82.82,0,0,0-.46.13.9.9,0,0,0-.47.74c0,.41,0,.82,0,1.22a.92.92,0,0,0,.56.8.14.14,0,0,1,.11.16v1a.16.16,0,0,1-.11.17,6.94,6.94,0,0,0-1.18.68,5.84,5.84,0,0,0-1.23,1.15,5.09,5.09,0,0,0-.67,1.15c-.06.16-.12.33-.17.49a5.16,5.16,0,0,1,.7.37h.12l.06-.23a4.1,4.1,0,0,1,.4-.88,4.27,4.27,0,0,1,1-1.08,5,5,0,0,1,1-.64c.19-.09.36-.19.55-.27a.64.64,0,0,1,.27-.07h2.3a1.06,1.06,0,0,1,.42.12,5.37,5.37,0,0,1,.81.45,4.57,4.57,0,0,1,1,1,5.2,5.2,0,0,1,.5.89c.08.22.16.44.22.66a9.209,9.209,0,0,1,.18,1,13.169,13.169,0,0,1,0,1.4.29.29,0,0,1-.06.19,3.46,3.46,0,0,0-.45.82,2.831,2.831,0,0,0-.09.37,6.812,6.812,0,0,1,.88.6,1.25,1.25,0,0,1,.06-.69A2,2,0,0,1,92.1,65a.83.83,0,0,0,.19-.49,9.869,9.869,0,0,0-.04-2.01Zm-4.33-4.76H86.15v-1h1.77A4.35,4.35,0,0,1,87.92,57.74Zm.69-2.12c0,.15,0,.18-.18.18H85.62c-.14,0-.19,0-.19-.2v-.8c0-.15,0-.18.18-.18h3v1Z"/>
      <path id="Path_105" data-name="Path 105" class="cls-1" d="M94.3,66.88a3.21,3.21,0,0,1,.66-.17h.26V64.45a8.52,8.52,0,0,1,.1-1.24c.05-.26.08-.52.15-.77a8.75,8.75,0,0,1,.27-.87,6.78,6.78,0,0,1,.48-1.1,7.279,7.279,0,0,1,.64-1,7.82,7.82,0,0,1,1.24-1.33.54.54,0,0,1,.36-.14h3.67a1.11,1.11,0,0,1,.4.09c.21.07.41.13.61.21l.58.25c.34.17.68.34,1,.53a11.079,11.079,0,0,1,1,.66,10.09,10.09,0,0,1,1.59,1.4c.3-.13.59-.25.89-.36a12.71,12.71,0,0,0-2-1.79,13.229,13.229,0,0,0-1.76-1.09,8.149,8.149,0,0,0-1.05-.46l-.46-.18c-.1,0-.12-.07-.13-.17V54.2a.57.57,0,0,0-.16-.39.5.5,0,0,0-.35-.1H98a.18.18,0,0,0-.1,0,.43.43,0,0,0-.26.43v2.88a.37.37,0,0,1-.14.32,7.64,7.64,0,0,0-1,1q-.25.3-.48.6a8.85,8.85,0,0,0-1,1.66c-.11.27-.21.55-.31.82a3.966,3.966,0,0,0-.13.4c-.04.13-.11.41-.16.62a3.9,3.9,0,0,0-.08.52c-.02.17-.08.55-.1.83a5.746,5.746,0,0,0,0,.59Zm4.28-12.23h3.41V57H98.58Z"/>
      <path id="Path_106" data-name="Path 106" class="cls-1" d="M102.87,73.69h5a.56.56,0,0,1,.44.17.59.59,0,0,1,.13.42V80.4a1.55,1.55,0,0,1,0,.31.42.42,0,0,1-.32.33,1.06,1.06,0,0,1-.31,0H97.87a.64.64,0,0,1-.36-.09.5.5,0,0,1-.23-.45V74.3a2,2,0,0,1,0-.25.43.43,0,0,1,.33-.36.86.86,0,0,1,.28,0Zm-4.65,6.42h9.29V74.63H98.23Z"/>
      <path id="Path_107" data-name="Path 107" class="cls-1" d="M101.39,62.43c.09.23.16.48.26.7l.2.39.45-.28.11-.06h0l.17-.1a5.43,5.43,0,0,1-.34-.82,2.4,2.4,0,0,1-.12-.71.3.3,0,0,1,.38-.31l.37.1a2.64,2.64,0,0,1,.69.35,8.391,8.391,0,0,1,.82.62,6.89,6.89,0,0,1,1.12-.19h0c-.26-.25-.54-.48-.82-.71a5.79,5.79,0,0,0-.9-.63,3.25,3.25,0,0,0-.85-.38,1.74,1.74,0,0,0-.68-.07,1.12,1.12,0,0,0-.78.38,1.08,1.08,0,0,0-.24.52,1.48,1.48,0,0,0,0,.59A2.51,2.51,0,0,0,101.39,62.43Z"/>
      <path id="Path_108" data-name="Path 108" class="cls-1" d="M93.41,47.66c1.11-1.75,2.18-3.44,3.26-5.12.31-.49.61-1,.93-1.47a.7.7,0,0,1,1.08-.3L118.22,50c.68.33.76.6.34,1.23q-2.19,3.3-4.39,6.57a.55.55,0,0,0,0,.72c1.44,2.14,2.86,4.3,4.28,6.45.48.72.41.94-.39,1.31-1.29.6-2.57,1.21-3.86,1.79a.61.61,0,0,0-.42.65c0,2.93,0,5.85.08,8.78a1.07,1.07,0,0,1-.72,1.17c-6.34,3-12.69,5.92-19,9a1.84,1.84,0,0,1-1.82,0q-9.37-4.45-18.78-8.83a1.17,1.17,0,0,1-.78-1.26c.06-2.91.06-5.82.11-8.72a.67.67,0,0,0-.46-.73c-1.29-.58-2.57-1.19-3.86-1.79-.79-.37-.85-.58-.35-1.32q2.16-3.26,4.33-6.49a.56.56,0,0,0,0-.75c-1.48-2.18-2.93-4.38-4.39-6.57-.43-.64-.35-.89.35-1.22l19.38-9.12c.71-.33.91-.27,1.34.41q1.95,3,3.88,6A2.041,2.041,0,0,1,93.41,47.66ZM75,58.19l.21.13q9,4.17,17.93,8.33a.78.78,0,0,0,.6,0q8.85-4.13,17.67-8.29a3.63,3.63,0,0,0,.41-.23l-.32-.16q-8.88-4.14-17.75-8.25a1,1,0,0,0-.74,0Q84.2,53.82,75.42,58ZM112.75,68.9c-.21.08-.34.12-.46.18L98.75,75.43c-.65.3-.76.29-1.17-.33-1.08-1.63-2.15-3.28-3.22-4.93l-.29-.38V86.42l.38-.15,17.92-8.47a.56.56,0,0,0,.38-.62V68.9Zm-20.08.9c-.18.26-.28.39-.37.53-1,1.63-2.07,3.26-3.12,4.88-.33.53-.48.57-1,.31l-11.56-5.4L74.09,69v8.36a.69.69,0,0,0,.35.46l17.89,8.54c.13.06.27.1.43.16ZM117.44,51,98.49,42,94.2,48.56l18.87,8.91Zm-48,14.44c.08.08.1.11.13.12Q78.82,69.85,88,74.2c.32.15.44,0,.59-.22l3.84-6a1.669,1.669,0,0,0,.11-.23L73.73,58.91ZM113,58.91,94.19,67.75l4.29,6.59,18.88-8.91ZM88.3,42l-19,8.84,4.38,6.53,18.79-8.76Z"/>
      <path id="Path_109" data-name="Path 109" class="cls-2" d="M328,181.2H293.49l-8.8-15.41H250.55v26.42H199.91v22h16.62a13.75,13.75,0,0,0,27.31,0h55.27a13.75,13.75,0,0,0,27.31,0h8.91V188.56A7.36,7.36,0,0,0,328,181.2Zm-97.78,38.54a7.19,7.19,0,1,0-.03,0ZM258.26,190V171.29H277L286.89,190Zm35.23,0h-4.4l-9.91-18.72h4.4l9.91,17.62Zm19.27,29.73a2.967,2.967,0,1,1,0,.01Z"/>
      <rect id="Rectangle_49" data-name="Rectangle 49" class="cls-5" width="53.95" height="11.01" transform="translate(195.5 180.1)"/>
      <path id="Path_110" data-name="Path 110" class="cls-2" d="M80.21,364.85a10.842,10.842,0,0,0-1.29.09,10,10,0,0,1-9.26-2.49,3.08,3.08,0,0,1-.89-3.4,7.53,7.53,0,0,1-5.32-.21,9.389,9.389,0,0,1-2.51-1.45c-1.38-1.13-1.49-2.33-.56-3.83.15-.24.31-.47.54-.81-2,.47-3.41-.46-4.8-1.47s-1.62-1.66-.72-3.45c-2.16-1.47-4.32-3-6.52-4.43-1.94-1.28-2.29-1.73-1.6-3.95a61.431,61.431,0,0,1,2.94-7.64A149.506,149.506,0,0,1,61,312.57c.62-.94,1.34-1.82,2-2.71a1.25,1.25,0,0,1,1.67-.39A14.33,14.33,0,0,0,77.42,309c.87-.44,1.78-.81,2.62-1.3a13.16,13.16,0,0,1,11.64-.83,3.38,3.38,0,0,0,2.48-.07,15.159,15.159,0,0,1,4.24-.74,128.482,128.482,0,0,1,23.35,1.27,10.3,10.3,0,0,0,3.86-.52,1.48,1.48,0,0,1,1.44.2,44.819,44.819,0,0,1,11,12.05,64.82,64.82,0,0,1,5.14,9.81c-2.33.86-4,2.57-5.76,4.11-2.41,2.1-4.88,4.13-7.39,6.23a7.11,7.11,0,0,1,.64,7.83c-1.46,2.79-4,3.9-7.1,3.87A7.37,7.37,0,0,1,122,357.4a7.23,7.23,0,0,1-6.26,2.4,7.32,7.32,0,0,1-9.14,5.49,5.781,5.781,0,0,1-.16,1A6.33,6.33,0,0,1,97.35,371c-1.62-.77-3.25-1.5-4.95-2.27-1.14,2.28-3.19,2.23-5.23,2a10,10,0,0,1-5.38-2.1,3.59,3.59,0,0,1-1.58-3.78Zm24-27.73.18-.23a30.378,30.378,0,0,1,2.85,1.57c5,3.39,10,6.81,15,10.21a3.63,3.63,0,0,0,1.17.57,5.63,5.63,0,0,0,6.06-3,5.48,5.48,0,0,0-1.19-6.56,33.7,33.7,0,0,0-2.6-2.18A227.942,227.942,0,0,0,99,320.76c-4.13-2.3-7.8-1.39-10.87,2.19a35.422,35.422,0,0,1-3.43,3.5,5.13,5.13,0,0,1-5.14,1,2.77,2.77,0,0,1-2.19-3.25,6.86,6.86,0,0,1,.63-1.85c.88-2,1.85-3.92,2.67-5.92a28.632,28.632,0,0,0,1-3.35,2.19,2.19,0,0,1,1.72-1.65c1.87-.54,3.7-1.21,5.53-1.88.75-.28,1.45-.7,2.42-1.18-3-.93-5.7-1.43-8.44-.25-1.56.67-3.08,1.43-4.6,2.19a16.12,16.12,0,0,1-13.52.86,1.19,1.19,0,0,0-1,.29,5.75,5.75,0,0,0-.91,1.2A146.552,146.552,0,0,0,50.5,334.92a55.277,55.277,0,0,0-1.87,5.53,1.01,1.01,0,0,0,.57,1.32c2.43,1.63,4.82,3.32,7.24,5a1.75,1.75,0,0,0,.84.33,4.45,4.45,0,0,1,4.23,3.3,2,2,0,0,0,1.37,1.13,11.67,11.67,0,0,1,5,1.13c1.7.73,2.91,1.76,2.47,3.7a10.5,10.5,0,0,1,2.49-.72,12,12,0,0,1,7.63,2.55,2.84,2.84,0,0,1,1,3.15c-.19.71-.46,1.39-.77,2.32a6.74,6.74,0,0,0,.56-.62,3.93,3.93,0,0,1,3.89-1.82,13.769,13.769,0,0,1,6.36,2.2,3.18,3.18,0,0,1,1.53,3.31,1,1,0,0,0,.46.82c1.58.77,3.18,1.51,4.8,2.2a4.79,4.79,0,0,0,6.63-4.15,1.15,1.15,0,0,0-.65-1.21c-1.51-.85-3-1.82-4.48-2.62a2.54,2.54,0,0,1-1.3-2.46.81.81,0,0,1,.25.05c2.36,1.31,4.72,2.64,7.1,3.94a5.65,5.65,0,0,0,8-2.83,1.13,1.13,0,0,0-.48-1.62c-3.86-2.61-7.67-5.3-11.51-7.93a1.35,1.35,0,0,1-.52-2,13.5,13.5,0,0,1,1.57.78c4,2.66,7.93,5.36,11.91,8a3.45,3.45,0,0,0,1.75.56,5.59,5.59,0,0,0,5.49-6.77,2.66,2.66,0,0,0-1-1.47q-7.53-5.31-15.13-10.5a4.42,4.42,0,0,1-1.75-2.4Z"/>
      <path id="Path_111" data-name="Path 111" class="cls-1" d="M162.21,320.62a7.4,7.4,0,0,1-1.37,2c-3.67,2.75-7.41,5.43-11.15,8.09a2.36,2.36,0,0,1-3.69-1.06c-3.16-7-6.85-13.76-12.19-19.41-1.72-1.83-3.64-3.47-5.52-5.15a2,2,0,0,1-.45-3,3.38,3.38,0,0,1,.78-.82c3.64-2.64,7.28-5.29,10.94-7.9a2.52,2.52,0,0,1,3.43.13c5.33,4.27,9.43,9.58,13.12,15.25a61.258,61.258,0,0,1,5.69,10.85,7.44,7.44,0,0,1,.22.81Z"/>
      <path id="Path_112" data-name="Path 112" class="cls-1" d="M40.51,342a13.5,13.5,0,0,1-2.11-.74c-4.25-2.32-8.48-4.69-12.72-7a4.09,4.09,0,0,1-1.8-5c3.6-12.08,9.83-22.7,17.58-32.52.6-.77,1.26-1.49,1.9-2.23,1.16-1.32,3-1.53,4.84-.52l11.31,6.28c.55.31,1.11.6,1.64.93a3.69,3.69,0,0,1,1,5.39c-6,8-11.65,16.3-15.55,25.61-1,2.43-1.9,4.93-2.81,7.41A3.57,3.57,0,0,1,40.51,342Zm-.21-1.65a2,2,0,0,0,2.05-1.44,79.86,79.86,0,0,1,7.95-17.5c3.39-5.37,7-10.58,10.59-15.85a2,2,0,0,0-.39-3,4.78,4.78,0,0,0-.72-.44l-12.22-6.79c-1.52-.84-2.29-.7-3.42.64a93.177,93.177,0,0,0-18.79,33.84A2.25,2.25,0,0,0,26.6,333l12.47,6.92a8.726,8.726,0,0,0,1.23.44Z"/>
      <path id="Path_113" data-name="Path 113" class="cls-5" d="M145.37,163.55c-1-1.08-2-2.12-3-3.14L141,167.19l-6.11-.06q1.6,1.53,3.1,3.16l6.09.13Z"/>
      <path id="Path_114" data-name="Path 114" class="cls-1" d="M98.69,139.82a9.43,9.43,0,1,0-.17,10,64,64,0,0,1,31.88,13.36l7.4.15,1.13-6.07A74,74,0,0,0,98.69,139.82Z"/>
      <path id="Path_115" data-name="Path 115" class="cls-5" d="M168.87,209.07a9.43,9.43,0,0,0-5.17-8.41,74,74,0,0,0-15.06-33.29l-1.34,6.87-6-.06a64,64,0,0,1,12.41,27.41,9.41,9.41,0,0,0,1.05,15.66,64,64,0,0,1-9.9,30.94l.88,7.33,6.07.27a74.07,74.07,0,0,0,13-38.95A9.42,9.42,0,0,0,168.87,209.07Z"/>
      <path id="Path_116" data-name="Path 116" class="cls-2" d="M142.57,266.77l-6.29-.33-.86-6.64a64.1,64.1,0,0,1-37,17.77,9.45,9.45,0,1,0,.34,10A74.06,74.06,0,0,0,142.57,266.77Z"/>
      <path id="Path_117" data-name="Path 117" class="cls-5" d="M142.38,259.23l-.82-6.34q-1.31,1.7-2.72,3.31l.78,6.53,6.52.29c1-1.12,2-2.26,2.88-3.44Z"/>
    </g>
  </g>
</svg>
