<svg id="Layer_2" data-name="Layer 2" xmlns="http://www.w3.org/2000/svg" width="50" height="50" viewBox="0 0 50 50">
  <g id="Layer_1" data-name="Layer 1">
    <path id="Path_56" data-name="Path 56" d="M24.968,0A25,25,0,1,1-.005,25.026,25,25,0,0,1,24.968,0Zm6.649,24.885c.187-1.837.368-3.6.559-5.448h-4.9V16.444c0-1.264.434-1.684,1.687-1.687h3.087V9.5c-1.965,0-3.9-.118-5.816.028a5.457,5.457,0,0,0-5.125,4.451,12.2,12.2,0,0,0-.247,2.281c-.038,1.042,0,2.083,0,3.2H17.84v5.448h3.038V40.278h6.43V24.885Z" transform="translate(0.005 0)" fill="#fff"/>
  </g>
</svg>
