<svg id="Layer_3" data-name="Layer 3" xmlns="http://www.w3.org/2000/svg" width="50" height="50" viewBox="0 0 50 50">
  <g id="Layer_1" data-name="Layer 1" transform="translate(0 0)">
    <path id="Path_57" data-name="Path 57" d="M49.97,23.631a18.81,18.81,0,0,0-.3-2.52c-.111-.726-.247-1.453-.427-2.165a20.969,20.969,0,0,0-.781-2.613,30.19,30.19,0,0,0-1.6-3.475,24.648,24.648,0,0,0-2.066-3.1,24.556,24.556,0,0,0-2.542-2.86A32.171,32.171,0,0,0,38.935,4.24a22.046,22.046,0,0,0-5.059-2.62A19.433,19.433,0,0,0,30.209.573C29.261.41,28.292.288,27.33.139A1.284,1.284,0,0,1,27.021,0h-4a1.517,1.517,0,0,1-.347.139c-.767.111-1.542.181-2.3.327a19.466,19.466,0,0,0-2.757.636,31.93,31.93,0,0,0-3.8,1.557,32.634,32.634,0,0,0-3.4,2.036,17.764,17.764,0,0,0-1.906,1.56A18.062,18.062,0,0,0,6.754,7.913c-.816.945-1.559,1.95-2.326,2.937A17.939,17.939,0,0,0,2.25,14.672c-.375.855-.733,1.738-1.042,2.613a23.118,23.118,0,0,0-.733,2.731c-.156.834-.215,1.706-.337,2.572A2.705,2.705,0,0,1,0,23.041v4a1.248,1.248,0,0,1,.139.313C.319,28.528.41,29.72.677,30.87a24.206,24.206,0,0,0,2.448,6.314,21.043,21.043,0,0,0,2.5,3.639,29.13,29.13,0,0,0,2.431,2.61,34.182,34.182,0,0,0,3.059,2.4A20.567,20.567,0,0,0,15.75,48.27a27.988,27.988,0,0,0,2.729.872c.92.254,1.816.434,2.729.632a5.384,5.384,0,0,0,.944.108c1.42.052,2.844.132,4.264.115a18.153,18.153,0,0,0,2.517-.3c.719-.108,1.434-.254,2.139-.42a21.008,21.008,0,0,0,2.059-.573A20.367,20.367,0,0,0,37.4,46.741a32.984,32.984,0,0,0,3.08-2.057,27.373,27.373,0,0,0,2.955-2.721,22.747,22.747,0,0,0,3.094-4.118,20.007,20.007,0,0,0,1.879-3.976c.4-1.268.785-2.544,1.125-3.823.149-.553.139-1.143.247-1.706A23.065,23.065,0,0,0,49.97,23.631Zm-8.455,8.532a9.619,9.619,0,0,1-9.754,9.411h-13.8A9.577,9.577,0,0,1,8.5,31.892q0-3.435,0-6.867V17.942a9.583,9.583,0,0,1,7.469-9.2,10.967,10.967,0,0,1,2.156-.222c4.632-.021,9.268,0,13.889,0a9.568,9.568,0,0,1,9.2,7.148,10.173,10.173,0,0,1,.306,2.467C41.549,22.815,41.608,27.492,41.515,32.163Z" transform="translate(0 0)" fill="#fff"/>
    <path id="Path_58" data-name="Path 58" d="M58.53,34.678A7,7,0,0,0,52.7,31.873H39.074a6.945,6.945,0,0,0-3.459.824,7.022,7.022,0,0,0-3.792,6.529v6.715c0,1.623-.021,3.247,0,4.87a22.368,22.368,0,0,0,.2,3.7,6.834,6.834,0,0,0,6.547,5.53c4.145.081,8.287.035,12.433,0a18.778,18.778,0,0,0,3.33-.168,6.82,6.82,0,0,0,5.6-6.5c.1-4.881.039-9.769.018-14.65a6.524,6.524,0,0,0-1.425-4.039ZM45.884,54.938a8.97,8.97,0,1,1,6.4-2.673,8.98,8.98,0,0,1-6.4,2.673Zm9.593-16.662a1.941,1.941,0,1,1,1.393-.569,1.934,1.934,0,0,1-1.393.569Z" transform="translate(-20.883 -20.92)" fill="#fff"/>
    <path id="Path_59" data-name="Path 59" d="M59.879,53.809a6.263,6.263,0,1,0,6.27,6.273A6.261,6.261,0,0,0,59.879,53.809Z" transform="translate(-34.879 -35.037)" fill="#fff"/>
  </g>
</svg>
