<svg width="378" height="378" xmlns="http://www.w3.org/2000/svg">

 <g>
  <title>background</title>
  <rect fill="none" id="canvas_background" height="402" width="582" y="-1" x="-1"/>
 </g>
 <g>
  <title>Layer 1</title>
  <rect fill="#3ace00" id="svg_1" width="378" ry="41" rx="41" height="378" class="fil0"/>
  <path fill="#ffffff" id="svg_2" d="m175,76c-64,7 -135,59 -108,130c25,67 104,70 110,75c11,8 -10,40 15,31c44,-17 123,-80 125,-132c2,-66 -72,-112 -142,-104zm-56,80l0,42l22,0c2,0 3,0 4,1c1,1 1,2 1,4c0,1 0,2 -1,3c-1,1 -2,1 -4,1l-27,0c-2,0 -4,0 -5,-1c-1,-1 -1,-3 -1,-6l0,-44c0,-2 0,-4 1,-5c1,-1 2,-2 4,-2c2,0 3,1 4,2c1,1 2,3 2,5zm35,45l0,-45c0,-2 1,-4 2,-5c1,-1 2,-2 4,-2c1,0 2,1 4,2c1,1 1,3 1,5l0,45c0,3 0,4 -1,6c-2,1 -3,1 -4,1c-2,0 -3,0 -4,-1c-1,-2 -2,-3 -2,-6zm38,-45l21,34l0,-34c0,-2 0,-4 1,-5c1,-1 2,-2 4,-2c1,0 3,1 3,2c1,1 2,3 2,5l0,45c0,5 -2,7 -6,7c-1,0 -2,0 -3,0c0,0 -1,-1 -2,-2c-1,0 -1,-1 -2,-2c0,-1 -1,-2 -2,-2l-20,-34l0,34c0,2 -1,4 -2,5c-1,1 -2,1 -3,1c-2,0 -3,0 -4,-1c-1,-1 -2,-3 -2,-5l0,-44c0,-2 1,-4 1,-5c1,-1 1,-2 2,-3c1,0 3,-1 4,-1c1,0 2,0 2,1c1,0 2,0 2,1c1,1 1,1 2,2c0,1 1,2 2,3zm79,3l-25,0l0,14l23,0c1,0 3,1 3,1c1,1 2,2 2,3c0,2 -1,3 -2,4c0,0 -2,1 -3,1l-23,0l0,16l25,0c2,0 4,1 4,1c1,1 2,2 2,4c0,1 -1,2 -2,3c0,1 -2,1 -4,1l-29,0c-3,0 -4,0 -6,-1c-1,-1 -1,-3 -1,-6l0,-43c0,-1 0,-3 1,-4c0,-1 1,-2 2,-2c1,-1 2,-1 4,-1l29,0c1,0 3,1 4,1c0,1 1,2 1,4c0,1 -1,2 -1,3c-1,1 -3,1 -4,1z" class="fil1"/>
  <line fill="none" id="svg_3" y2="241" y1="116" x2="378" x1="291" class="fil2"/>
  <path fill="#2fa700" id="svg_4" d="m378,241l-70,-100c6,12 9,25 9,39c-2,52 -81,115 -125,132c-5,2 -8,2 -10,1l65,65l90,0l41,-41l0,-96z" class="fil3"/>
  <path fill="#2fa700" id="svg_5" d="m213,190l-21,-34l-2,-3l-2,-2c0,-1 -1,-1 -2,-1c0,-1 -1,-1 -2,-1c-1,0 -3,1 -4,1c-1,1 -1,2 -2,3c0,1 -1,3 -1,5l0,44c0,2 1,4 2,5c1,1 2,1 4,1c1,0 2,0 3,-1c1,-1 2,-3 2,-5l0,-34l20,34l2,2l2,2c1,1 2,2 2,2c1,0 2,0 3,0c4,0 6,-2 6,-7l0,-45c0,-2 -1,-4 -2,-5c0,-1 -2,-2 -3,-2c-2,0 -3,1 -4,2c-1,1 -1,3 -1,5l0,34z" class="fil3"/>
  <path fill="#2fa700" id="svg_6" d="m165,201l0,-45c0,-2 0,-4 -1,-5c-2,-1 -3,-2 -4,-2c-2,0 -3,1 -4,2c-1,1 -2,3 -2,5l0,45c0,3 1,4 2,6c1,1 2,1 4,1c1,0 2,0 4,-1c1,-2 1,-3 1,-6z" class="fil3"/>
  <path fill="#2fa700" id="svg_7" d="m119,198l0,-42c0,-2 -1,-4 -2,-5c-1,-1 -2,-2 -4,-2c-2,0 -3,1 -4,2c-1,1 -1,3 -1,5l0,44c0,3 0,5 1,6c1,1 3,1 5,1l27,0c2,0 3,0 4,-1c1,-1 1,-2 1,-3c0,-2 0,-3 -1,-4c-1,-1 -2,-1 -4,-1l-22,0z" class="fil3"/>
  <path fill="#2fa700" id="svg_8" d="m235,157l0,43c0,3 0,5 1,6c2,1 3,1 6,1l29,0c2,0 4,0 4,-1c1,-1 2,-2 2,-3c0,-2 -1,-3 -2,-4c0,0 -2,-1 -4,-1l-25,0l0,-16l23,0c1,0 3,-1 3,-1c1,-1 2,-2 2,-4c0,-1 -1,-2 -2,-3c0,0 -2,-1 -3,-1l-23,0l0,-14l25,0c1,0 3,0 4,-1c0,-1 1,-2 1,-3c0,-2 -1,-3 -1,-4c-1,0 -3,-1 -4,-1l-29,0c-2,0 -3,0 -4,1c-1,0 -2,1 -2,2c-1,1 -1,3 -1,4z" class="fil3"/>
  <path fill="#2fa700" id="svg_9" d="m152,274l27,28c1,-8 3,-17 -2,-21c-2,-2 -12,-3 -25,-7z" class="fil3"/>
 </g>
</svg>