<svg xmlns="http://www.w3.org/2000/svg" width="50" height="50" viewBox="0 0 50 50">
  <g id="Layer_4" data-name="Layer 4" transform="translate(0.12 0)">
    <g id="Layer_1" data-name="Layer 1" transform="translate(-0.12 0)">
      <path id="Path_60" data-name="Path 60" d="M24.957,0A25,25,0,1,0,49.88,25.083,25,25,0,0,0,24.957,0ZM36.985,31.182A67.762,67.762,0,0,1,25.97,39.55a6.8,6.8,0,0,1-1.884.8c-.621.173-.857-.149-.694-.777.219-.76.486-1.5.645-2.272.177-.853-.16-1.242-1.041-1.419a34.223,34.223,0,0,1-3.73-.794,14.219,14.219,0,0,1-8.8-7.067,10.869,10.869,0,0,1,.777-11.726c2.651-3.879,6.526-5.825,11.1-6.47a17.548,17.548,0,0,1,11.1,1.936,13.065,13.065,0,0,1,6.765,8.111,29.357,29.357,0,0,1,.507,2.98A11.862,11.862,0,0,1,36.985,31.182Z" transform="translate(0.12 0)" fill="#fff"/>
      <path id="Path_61" data-name="Path 61" d="M72.333,59.138c-.4-.111-.626.209-.7.592a5.438,5.438,0,0,0-.042.79v3.5l-.129.035-.522-.783c-.8-1.235-1.587-2.491-2.453-3.692a1.322,1.322,0,0,0-.967-.414c-.4,0-.592.372-.6.79,0,.24-.038.484-.042.727v3.48c0,.588,0,1.18.031,1.764a.633.633,0,0,0,.63.7.647.647,0,0,0,.7-.7c.035-.484.028-.974.031-1.461v-2.7a1.35,1.35,0,0,1,.452.463c.825,1.256,1.642,2.512,2.471,3.765a1.063,1.063,0,0,0,1.225.578c.564-.153.536-.651.539-1.089V60.126c0-.122.028-.278-.031-.348C72.757,59.531,72.573,59.208,72.333,59.138Z" transform="translate(-43.645 -38.617)" fill="#fff"/>
      <path id="Path_62" data-name="Path 62" d="M94.1,65.568a1.538,1.538,0,0,0-.661-.035H90.594V63.48h.348c.894,0,1.792.028,2.679-.031a.846.846,0,0,0,.588-.518c.094-.348-.216-.525-.56-.55H90.573V60.554h3.18c.4,0,.779-.077.769-.567s-.386-.557-.783-.557H90.083c-.8,0-1.006.209-1.013,1.044v5.24c0,.79.226,1,1.044,1.009.933.021,1.869,0,2.784,0a4.993,4.993,0,0,0,1.211-.059.759.759,0,0,0,.5-.553C94.613,65.916,94.314,65.679,94.1,65.568Z" transform="translate(-58.139 -38.822)" fill="#fff"/>
      <path id="Path_63" data-name="Path 63" d="M44.7,65.3a1.51,1.51,0,0,0-.658-.045H41.495V60.1c0-.7-.289-1.061-.769-1.044-.633.045-.7.522-.7,1.013v5.352c0,.8.216,1.013,1.016,1.044.974.021,1.945,0,2.919,0a1.837,1.837,0,0,0,.776-.077.793.793,0,0,0,.421-.553C45.149,65.649,44.891,65.416,44.7,65.3Z" transform="translate(-26.105 -38.579)" fill="#fff"/>
      <path id="Path_64" data-name="Path 64" d="M58.576,59.1c-.592.052-.7.487-.7.967V65.6c0,.675.261,1,.727.992s.731-.348.734-1.006q.021-2.784,0-5.543C59.345,59.414,59.046,59.066,58.576,59.1Z" transform="translate(-37.76 -38.608)" fill="#fff"/>
    </g>
  </g>
</svg>
