<svg xmlns="http://www.w3.org/2000/svg" width="122.916" height="69.13" viewBox="0 0 122.916 69.13">
  <g id="Layer_2" data-name="Layer 2" transform="translate(0 0)">
    <g id="Layer_1" data-name="Layer 1" transform="translate(0 0)">
      <path id="Path_1" data-name="Path 1" d="M4.743,57.142V68.8H0V52.86H6.087a6.372,6.372,0,0,1,4.321,1.378A5.142,5.142,0,0,1,10,62.226L12.731,68.8H7.744l-2.3-5.142v-4.1h.374c.994,0,1.493-.427,1.493-1.287,0-.754-.576-1.133-1.728-1.133Z" transform="translate(0 -27.484)" fill="#0c1e2d"/>
      <path id="Path_2" data-name="Path 2" d="M33.916,61.3a5.761,5.761,0,0,1,4.244,1.776,6.039,6.039,0,0,1,0,8.564,6.137,6.137,0,0,1-8.641,0,6.05,6.05,0,0,1,0-8.612,6.1,6.1,0,0,1,4.4-1.723ZM33.8,65.619a1.594,1.594,0,0,0-1.191.48,1.8,1.8,0,0,0,0,2.482,1.637,1.637,0,0,0,2.4,0,1.7,1.7,0,0,0,.48-1.234,1.733,1.733,0,0,0-.48-1.248,1.608,1.608,0,0,0-1.21-.49Z" transform="translate(-14.411 -31.87)" fill="#0c1e2d"/>
      <path id="Path_3" data-name="Path 3" d="M67.358,73.2H62.994V66.619c0-.672-.278-1-.831-1s-.821.331-.821,1V73.2H57V66.7a5.3,5.3,0,0,1,1.5-3.841,5.247,5.247,0,0,1,7.681.25,5.99,5.99,0,0,1,1.176,3.937Z" transform="translate(-29.634 -31.876)" fill="#0c1e2d"/>
      <path id="Path_4" data-name="Path 4" d="M89.429,68.389v4a5.161,5.161,0,0,1-1.81.35,4.676,4.676,0,0,1-3.581-1.6,5.593,5.593,0,0,1-1.44-3.913,5.665,5.665,0,0,1,1.762-4.22A5.982,5.982,0,0,1,88.68,61.3a6.457,6.457,0,0,1,2.616.547A4.9,4.9,0,0,1,93.26,63.32a7.14,7.14,0,0,1,1.191,4.436V71.6a7.23,7.23,0,0,1-1.771,5.065,5.929,5.929,0,0,1-4.6,1.92,7.292,7.292,0,0,1-2.184-.432V74.193a3.543,3.543,0,0,0,1.728.48,2.227,2.227,0,0,0,1.819-.778,3.409,3.409,0,0,0,.643-2.223v-4.4q0-1.829-1.483-1.829a1.5,1.5,0,0,0-1.1.48,1.551,1.551,0,0,0-.48,1.119A1.518,1.518,0,0,0,88.579,68.6,1.848,1.848,0,0,0,89.429,68.389Z" transform="translate(-42.944 -31.87)" fill="#0c1e2d"/>
      <path id="Path_5" data-name="Path 5" d="M118.721,62.141v4.6a1.791,1.791,0,0,0-1.267.341,2.275,2.275,0,0,0-.437,1.363,5.8,5.8,0,0,1-2.616,4.762,6.884,6.884,0,0,1-3.48.725h-.61V69.313h.2a2.127,2.127,0,0,0,1.5-.437,2.324,2.324,0,0,0,.518-1.536,10.56,10.56,0,0,1,.336-2.511,3.634,3.634,0,0,1,.96-1.44,4.9,4.9,0,0,1,3.562-1.248Z" transform="translate(-57.354 -32.305)" fill="#0c1e2d"/>
      <path id="Path_6" data-name="Path 6" d="M175.573,70.369a1.579,1.579,0,0,0-1.191.509,1.8,1.8,0,0,0,0,2.482,1.637,1.637,0,0,0,2.4,0,1.81,1.81,0,0,0,0-2.482A1.594,1.594,0,0,0,175.573,70.369Z" transform="translate(-90.409 -36.587)" fill="#0c1e2d"/>
      <path id="Path_7" data-name="Path 7" d="M180.116,24.4A42.6,42.6,0,0,1,178.676,11a21.267,21.267,0,0,1-4.321.96c-5.66.653-9.558-1.239-17.7-4.541-7.8-3.164-11.781-4.767-15.789-5.761A60.09,60.09,0,0,0,128.211,0a102.789,102.789,0,0,1,3.36,14.589,59.684,59.684,0,0,1,.96,11.243A58.129,58.129,0,0,1,129.9,41.382a76.282,76.282,0,0,1-3.841,10.523,80.614,80.614,0,0,1,19.856.96c5.636.96,9.942,1.781,14.829,4.541A35.117,35.117,0,0,1,172.939,69.13a39.782,39.782,0,0,0,7.657-6.7c2.76-3.13,6.721-7.6,7.652-13.159C189.645,41.084,183.759,37.6,180.116,24.4ZM155.047,39.846a6.164,6.164,0,0,1-8.665,0,5.843,5.843,0,0,1-1.8-4.321,5.761,5.761,0,0,1,1.8-4.321,6.14,6.14,0,0,1,4.441-1.747,5.761,5.761,0,0,1,4.244,1.781,6.044,6.044,0,0,1,0,8.569Zm7.979,1.541h-4.349V25.444h4.364Zm2.88,0-2.732-7.6,1.983-4.042h4.561l-2.141,4.244,3.178,7.4Z" transform="translate(-65.542 0)" fill="#0c1e2d"/>
    </g>
  </g>
</svg>
