<svg id="Layer_2" data-name="Layer 2" xmlns="http://www.w3.org/2000/svg" width="120.695" height="67.881" viewBox="0 0 120.695 67.881">
  <g id="Layer_1" data-name="Layer 1" transform="translate(0 0)">
    <path id="Path_49" data-name="Path 49" d="M4.657,57.065v11.45H0V52.86H5.977a6.256,6.256,0,0,1,4.243,1.353,5.049,5.049,0,0,1-.4,7.844L12.5,68.515H7.6L5.346,63.466V59.441h.368c.976,0,1.466-.42,1.466-1.263,0-.74-.566-1.112-1.7-1.112Z" transform="translate(0 -27.942)" fill="#0c1e2d"/>
    <path id="Path_50" data-name="Path 50" d="M33.8,61.3a5.657,5.657,0,0,1,4.167,1.744,5.93,5.93,0,0,1,0,8.41,6.026,6.026,0,0,1-8.485,0,5.941,5.941,0,0,1,0-8.457A5.991,5.991,0,0,1,33.8,61.3Zm-.113,4.243a1.565,1.565,0,0,0-1.169.471,1.768,1.768,0,0,0,0,2.437,1.607,1.607,0,0,0,2.357,0,1.673,1.673,0,0,0,.471-1.211,1.7,1.7,0,0,0-.471-1.226,1.579,1.579,0,0,0-1.188-.481Z" transform="translate(-14.651 -32.402)" fill="#0c1e2d"/>
    <path id="Path_51" data-name="Path 51" d="M67.171,72.981H62.886V66.523c0-.66-.273-.985-.816-.985s-.806.325-.806.985v6.458H57V66.6a5.209,5.209,0,0,1,1.475-3.771,5.152,5.152,0,0,1,7.542.245,5.881,5.881,0,0,1,1.155,3.865Z" transform="translate(-30.129 -32.408)" fill="#0c1e2d"/>
    <path id="Path_52" data-name="Path 52" d="M89.305,68.261v3.931a5.068,5.068,0,0,1-1.777.344,4.591,4.591,0,0,1-3.517-1.57A5.492,5.492,0,0,1,82.6,67.125a5.562,5.562,0,0,1,1.73-4.144A5.874,5.874,0,0,1,88.57,61.3a6.34,6.34,0,0,1,2.569.537,4.813,4.813,0,0,1,1.928,1.447,7.011,7.011,0,0,1,1.169,4.356V71.41A7.1,7.1,0,0,1,92.5,76.383a5.822,5.822,0,0,1-4.521,1.886,7.16,7.16,0,0,1-2.145-.424V73.96a3.479,3.479,0,0,0,1.7.471,2.187,2.187,0,0,0,1.787-.764,3.347,3.347,0,0,0,.632-2.183V67.167q0-1.8-1.457-1.8a1.471,1.471,0,0,0-1.084.471,1.523,1.523,0,0,0-.471,1.1,1.491,1.491,0,0,0,1.537,1.523A1.815,1.815,0,0,0,89.305,68.261Z" transform="translate(-43.66 -32.402)" fill="#0c1e2d"/>
    <path id="Path_53" data-name="Path 53" d="M118.569,62.141v4.521a1.758,1.758,0,0,0-1.244.335,2.234,2.234,0,0,0-.429,1.339,5.7,5.7,0,0,1-2.569,4.676,6.76,6.76,0,0,1-3.418.712h-.6v-4.54h.193a2.088,2.088,0,0,0,1.475-.429,2.282,2.282,0,0,0,.509-1.508,10.371,10.371,0,0,1,.33-2.465,3.568,3.568,0,0,1,.943-1.414,4.813,4.813,0,0,1,3.5-1.226Z" transform="translate(-58.311 -32.844)" fill="#0c1e2d"/>
    <path id="Path_54" data-name="Path 54" d="M175.543,70.369a1.551,1.551,0,0,0-1.169.5,1.768,1.768,0,0,0,0,2.437,1.607,1.607,0,0,0,2.357,0,1.777,1.777,0,0,0,0-2.437A1.565,1.565,0,0,0,175.543,70.369Z" transform="translate(-91.918 -37.197)" fill="#0c1e2d"/>
    <path id="Path_55" data-name="Path 55" d="M179.139,23.956A41.827,41.827,0,0,1,177.725,10.8a20.883,20.883,0,0,1-4.243.943c-5.558.641-9.385-1.216-17.38-4.459-7.655-3.106-11.568-4.681-15.5-5.657A59,59,0,0,0,128.172,0a100.934,100.934,0,0,1,3.3,14.326,58.607,58.607,0,0,1,.943,11.04,57.077,57.077,0,0,1-2.583,15.268,74.9,74.9,0,0,1-3.771,10.333,79.157,79.157,0,0,1,19.5.943c5.534.943,9.763,1.749,14.561,4.459a34.482,34.482,0,0,1,11.973,11.511A39.064,39.064,0,0,0,179.61,61.3c2.711-3.073,6.6-7.467,7.514-12.921C188.5,40.342,182.717,36.92,179.139,23.956ZM154.523,39.126a6.053,6.053,0,0,1-8.509,0,5.737,5.737,0,0,1-1.763-4.243,5.657,5.657,0,0,1,1.763-4.243,6.029,6.029,0,0,1,4.36-1.716,5.657,5.657,0,0,1,4.167,1.749,5.935,5.935,0,0,1,0,8.414Zm7.835,1.513h-4.271V24.984h4.285Zm2.828,0L162.5,33.172,164.45,29.2h4.478l-2.1,4.167,3.121,7.269Z" transform="translate(-66.636 0)" fill="#0c1e2d"/>
  </g>
</svg>
