<svg xmlns="http://www.w3.org/2000/svg" width="136" height="68.816" viewBox="0 0 136 68.816">
  <g id="Group_19" data-name="Group 19" transform="translate(-220 -610.184)">
    <text id="Rp500_per_kg" data-name="Rp500
per kg" transform="translate(296 636)" fill="#0c1e2d" font-size="20" font-family="SegoeUI-Bold, Segoe UI" font-weight="700"><tspan x="0" y="0">Rp500</tspan><tspan font-size="13" font-family="SegoeUI, Segoe UI" font-weight="400"><tspan x="0" y="19">per kg</tspan></tspan></text>
    <g id="Layer_2" data-name="Layer 2" transform="translate(220.016 610.199)">
      <g id="Layer_1" data-name="Layer 1" transform="translate(-0.016 -0.015)">
        <path id="Path_17" data-name="Path 17" d="M15.99,66.265c-.18.267-.321.494-.471.7a4.746,4.746,0,0,1-1.5,1.446,2.6,2.6,0,0,1-1.259.39h-.2a3.3,3.3,0,0,1-2.189-.74,7,7,0,0,1-1.525-1.619c-.086-.121-.185-.247-.3-.387-.123.128-.222.23-.316.331A10.612,10.612,0,0,1,5.943,68.3a3.433,3.433,0,0,1-2.4.464,2.962,2.962,0,0,1-1.762-1.106A7.715,7.715,0,0,1,.518,65.52,2.282,2.282,0,0,0,.4,65.288a2.782,2.782,0,0,1-.247-1.372q0-14.342,0-28.683c0-.842,0-1.686.015-2.527a6.841,6.841,0,0,1,.109-1.054,1.533,1.533,0,0,1,.2-.427c.306-.543.622-1.079.918-1.626a2.92,2.92,0,0,0,.284-1.545A4.311,4.311,0,0,0,.9,25.942c-.148-.247-.336-.457-.471-.7a1.506,1.506,0,0,1-.158-.528C.2,24.086.146,23.457.072,22.833a10.294,10.294,0,0,1,0-2.685c0-.054.022-.109.025-.165A10.05,10.05,0,0,1,.37,18.19a10.4,10.4,0,0,1,.6-1.873,11.064,11.064,0,0,1,1.54-2.586A13.211,13.211,0,0,1,5.343,11.1,17.632,17.632,0,0,1,8.071,9.57a.365.365,0,0,0,.247-.378V6.9a.365.365,0,0,0-.247-.37,2.061,2.061,0,0,1-1.3-1.8c-.035-.918-.03-1.841,0-2.759A2.037,2.037,0,0,1,7.868.277,1.974,1.974,0,0,1,8.924,0h7.088a2.195,2.195,0,0,1,1.974,1.288,2.12,2.12,0,0,1,.247,1.056q0,1.014,0,2.029a2.369,2.369,0,0,1-1.387,2.16.38.38,0,0,0-.247.383V9.078a.343.343,0,0,0,.247.373,12.352,12.352,0,0,1,2.572,1.407,11.516,11.516,0,0,1,2.767,2.767A12.661,12.661,0,0,1,23.5,16.041a14.314,14.314,0,0,1,.476,1.466c.138.494.259.975.365,1.468a7.742,7.742,0,0,1,.138.921,22.706,22.706,0,0,1,.1,4.442,1.918,1.918,0,0,1-.447,1.1,4.27,4.27,0,0,0-.78,1.281,2.836,2.836,0,0,0-.136,1.594,10.119,10.119,0,0,0,.987,2.49,3.208,3.208,0,0,1,.373,1.523q0,8.833,0,17.669,0,5.755-.02,11.513c0,.721-.027,1.441,0,2.162a3.285,3.285,0,0,1-.383,1.624,14.335,14.335,0,0,1-.785,1.429,4.734,4.734,0,0,1-1.757,1.728,2.606,2.606,0,0,1-1.18.346h-.479a3.408,3.408,0,0,1-1.666-.506,9.348,9.348,0,0,1-2.09-1.774C16.146,66.448,16.084,66.371,15.99,66.265Zm6.533-10.506c.077-.666.047-21.07-.022-21.306-.323-.069-19.885-.059-20.149.012V55.776c.17,0,.323.022.476.022H21.953C22.146,55.791,22.331,55.776,22.523,55.759ZM22.56,32.27a1.481,1.481,0,0,0-.062-.2c-.175-.375-.365-.74-.531-1.12a8.952,8.952,0,0,1-.844-2.73A4.832,4.832,0,0,1,21.4,26.1a7.1,7.1,0,0,1,1.022-1.863.661.661,0,0,0,.146-.424,26.956,26.956,0,0,0-.091-3.186,19.29,19.29,0,0,0-.424-2.359,11.262,11.262,0,0,0-.511-1.481,10.119,10.119,0,0,0-1.155-2.019,9.872,9.872,0,0,0-2.424-2.3A11.02,11.02,0,0,0,16.1,11.46a2.394,2.394,0,0,0-.987-.289H9.823a1.622,1.622,0,0,0-.634.148c-.429.19-.839.415-1.261.619a11.185,11.185,0,0,0-2.221,1.446,9.9,9.9,0,0,0-2.184,2.448,8.692,8.692,0,0,0-.928,2Q2.423,18.409,2.31,19a14.712,14.712,0,0,0-.23,1.538,14,14,0,0,0,.148,3.013,2.041,2.041,0,0,0,.269.842c.267.424.516.864.74,1.308a5.859,5.859,0,0,1,.585,1.878,4.457,4.457,0,0,1-.131,1.908,9.087,9.087,0,0,1-.99,2.142c-.126.21-.247.417-.392.634C2.624,32.359,22.232,32.362,22.56,32.27ZM2.357,57.735c0,.151-.027.247-.027.343v5.758a.967.967,0,0,0,.037.331c.118.341.247.679.383,1.012a3.662,3.662,0,0,0,.708,1.145.916.916,0,0,0,.81.36,2.468,2.468,0,0,0,.824-.309,6.663,6.663,0,0,0,1.728-1.5c.343-.422.689-.847,1.039-1.266a.864.864,0,0,1,.768-.36,1.118,1.118,0,0,1,.893.526,16.245,16.245,0,0,0,1.249,1.762,4.159,4.159,0,0,0,1.293,1.1,1.019,1.019,0,0,0,.987-.02A2.851,2.851,0,0,0,14.1,65.463c.316-.538.563-1.113.851-1.668a.925.925,0,0,1,.829-.558,1.1,1.1,0,0,1,.987.476,17.028,17.028,0,0,0,1.5,1.816,4.564,4.564,0,0,0,1.446,1.113,1.167,1.167,0,0,0,1.162-.069,2.557,2.557,0,0,0,.74-.8,11.18,11.18,0,0,0,.661-1.234,2.194,2.194,0,0,0,.279-.861v-5.59a.6.6,0,0,0,0-.067c-.015-.2-.064-.247-.247-.269H2.357ZM16.05,2.077c-.158,0-.3-.02-.439-.02H9.161c-.353,0-.415.062-.417.4V4.288c0,.341.1.437.432.437h6.481c.346,0,.412-.064.412-.4V2.36C16.069,2.274,16.057,2.188,16.05,2.077ZM10.405,9.13H14.49a9.312,9.312,0,0,0,0-2.315H10.405Z" transform="translate(0.016 0.005)" fill="#0c1e2d"/>
        <path id="Path_18" data-name="Path 18" d="M118.436,43.776V24.309c0-.444-.015-.888.02-1.33.052-.629.133-1.254.217-1.878.054-.395.121-.787.207-1.177.106-.471.247-.94.368-1.407.086-.3.18-.61.291-.906.247-.624.454-1.254.726-1.858A18.954,18.954,0,0,1,122.486,12c.35-.462.713-.916,1.093-1.352a17.449,17.449,0,0,1,2.3-2.238.812.812,0,0,0,.326-.711q0-2.314,0-4.625c0-.666.012-1.333,0-2a1,1,0,0,1,.585-.987A.869.869,0,0,1,127.037,0a2.105,2.105,0,0,1,.313-.012h9.685a1.128,1.128,0,0,1,.8.247,1.207,1.207,0,0,1,.378.879,3.61,3.61,0,0,1,0,.365v6.19c.015.247.069.309.289.387.358.133.713.276,1.074.4a21.5,21.5,0,0,1,2.419,1.061,27.771,27.771,0,0,1,4.057,2.468,28.449,28.449,0,0,1,4.85,4.442,30.262,30.262,0,0,1,2.767,3.717,27.93,27.93,0,0,1,1.925,3.66c.333.76.592,1.555.884,2.335a18.885,18.885,0,0,1,.691,2.372c.128.55.271,1.093.378,1.646.081.422.121.851.175,1.278q.116.869.225,1.74a3.018,3.018,0,0,1,.02.365c.012,1.111.03,2.221.03,3.329V64.424a4.261,4.261,0,0,1-1.589,3.369,4.406,4.406,0,0,1-1.481.819,4.114,4.114,0,0,1-1.4.173H122.572A4.212,4.212,0,0,1,119.3,67a4.81,4.81,0,0,1-.822-1.856,3.4,3.4,0,0,1-.042-.795V57.124Zm2.125.136h0V64.278a2.377,2.377,0,0,0,.368,1.318,2.293,2.293,0,0,0,2.056,1.091h30.549a2.431,2.431,0,0,0,.906-.146,2.13,2.13,0,0,0,1.481-1.876c.017-.188.017-.378.017-.565V46.928q0-6.686-.049-13.377a12.69,12.69,0,0,0-.17-1.75c-.1-.686-.247-1.367-.378-2.053a19.386,19.386,0,0,0-.536-2.108c-.2-.681-.437-1.35-.689-2.014a25.474,25.474,0,0,0-1.276-2.811,26.382,26.382,0,0,0-3.208-4.748,25.361,25.361,0,0,0-4.79-4.405c-.758-.533-1.547-1.027-2.352-1.481-.755-.434-1.54-.817-2.322-1.2-.429-.21-.879-.39-1.325-.56s-.943-.331-1.417-.494a2.962,2.962,0,0,0-.933-.185q-4.225.015-8.453,0a1.2,1.2,0,0,0-.829.3,18.488,18.488,0,0,0-2.878,3,17.77,17.77,0,0,0-1.461,2.246,15.472,15.472,0,0,0-1.125,2.468c-.215.654-.452,1.3-.624,1.974-.151.575-.227,1.167-.326,1.752a16.82,16.82,0,0,0-.232,2.814q0,9.813,0,19.621ZM136.174,2.121c-.276-.1-7.518-.109-7.853-.012V7.435c.363.084,7.592.069,7.853-.017Z" transform="translate(-89.198 0.015)" fill="#0c1e2d"/>
        <path id="Path_19" data-name="Path 19" d="M159.166,183.276h11.612a1.288,1.288,0,0,1,1.007.385,1.311,1.311,0,0,1,.3.95v13.875a3.582,3.582,0,0,1-.069.689.945.945,0,0,1-.74.74,2.362,2.362,0,0,1-.716.086H147.608a1.513,1.513,0,0,1-.817-.195,1.14,1.14,0,0,1-.545-1.032V184.732a3.257,3.257,0,0,1,.042-.56.987.987,0,0,1,.74-.819,2.172,2.172,0,0,1,.649-.084Zm-10.731,14.561h21.445a.739.739,0,0,0,.037-.141V185.586a.927.927,0,0,0-.025-.163.069.069,0,0,0-.02-.027l-.022-.025c-.595-.064-21.176-.035-21.42.035Z" transform="translate(-110.147 -138.033)" fill="#0c1e2d"/>
        <path id="Path_20" data-name="Path 20" d="M199.551,75.148a3.12,3.12,0,0,1-.454,1.9,2.389,2.389,0,0,1-1.214.95,3.455,3.455,0,0,1-1.9.062,8.819,8.819,0,0,1-2.836-1.234,21.619,21.619,0,0,1-3.455-2.762,28.609,28.609,0,0,1-2.838-3.174,24.128,24.128,0,0,1-2.69-4.3c-.247-.508-.392-1.066-.607-1.592a6.474,6.474,0,0,1-.348-1.505,3.47,3.47,0,0,1,.059-1.35,2.579,2.579,0,0,1,.56-1.165,2.549,2.549,0,0,1,1.807-.869,4.277,4.277,0,0,1,1.575.163,8.7,8.7,0,0,1,1.974.854,16.784,16.784,0,0,1,2.078,1.419c.634.531,1.276,1.061,1.878,1.629a26.212,26.212,0,0,1,2.781,3.09,24.715,24.715,0,0,1,2.09,3.142,16.289,16.289,0,0,1,1.024,2.184,6.521,6.521,0,0,1,.516,2.552Zm-2.014.049a7.515,7.515,0,0,0-.353-1.649,15.581,15.581,0,0,0-.795-1.784,22.57,22.57,0,0,0-2.382-3.529,23.039,23.039,0,0,0-5.336-4.99,5.906,5.906,0,0,0-1.6-.785c-.284-.079-.563-.175-.851-.227a.676.676,0,0,0-.879.7,5.215,5.215,0,0,0,.286,1.614,13.79,13.79,0,0,0,.814,1.9,19.219,19.219,0,0,0,1.33,2.221,21.547,21.547,0,0,0,1.782,2.31,27.243,27.243,0,0,0,2.715,2.648A15.315,15.315,0,0,0,195.15,75.6a3.826,3.826,0,0,0,1.481.494C197.387,76.13,197.5,76.026,197.537,75.2Z" transform="translate(-137.957 -45.264)" fill="#0c1e2d"/>
      </g>
    </g>
  </g>
</svg>
