<svg xmlns="http://www.w3.org/2000/svg" width="153.313" height="63.461" viewBox="0 0 153.313 63.461">
  <g id="Group_21" data-name="Group 21" transform="translate(-675.688 -610)">
    <text id="Rp1700_per_kg" data-name="Rp1700
per kg" transform="translate(757 632)" fill="#0c1e2d" font-size="20" font-family="SegoeUI-Bold, Segoe UI" font-weight="700"><tspan x="0" y="0">Rp1700</tspan><tspan font-size="13" font-family="SegoeUI, Segoe UI" font-weight="400"><tspan x="0" y="19">per kg</tspan></tspan></text>
    <g id="Layer_2" data-name="Layer 2" transform="translate(675.688 615.813)">
      <g id="Layer_1" data-name="Layer 1" transform="translate(0 0)">
        <path id="Path_15" data-name="Path 15" d="M2,34.474c-.386-.1-.82-.17-1.232-.311a3.734,3.734,0,0,1-.7-.414c.172-.229.3-.561.53-.671.89-.432,1.8-.795,2.721-1.181a2.227,2.227,0,0,1,.234-.062c1.785-.55,1.829-.548,1.893-2.392a7.267,7.267,0,0,0-1-4.658,5.633,5.633,0,0,0-1.461-1.2c-.442-.3-1-.458-1.412-.795-.646-.53-.445-1.247.36-1.5l2.857-.877c-2.348-2.659-2.657-5.831-2.415-9.1C2.545,9,3.417,6.939,5.716,5.936a12.224,12.224,0,0,1,3.128-.643c5.144-.736,10.288-1.443,15.432-2.158L40.438.9c2.176-.293,4.336-.6,6.5-.887a2.14,2.14,0,0,1,.9.059Q60.029,3.737,72.212,7.417c.805.244.985.957.358,1.507a2.9,2.9,0,0,1-1.029.61,3.772,3.772,0,0,0-2.572,3.032,12.848,12.848,0,0,0-.152,4.522c.018.172.309.378.514.46,1.286.514,2.605.98,3.909,1.466a.736.736,0,0,1,.257.144c.2.211.386.44.579.661a3.258,3.258,0,0,1-.779.494c-1.008.278-2.032.514-3.14.772,1.728,2.148,1.831,4.6,1.592,7.088s-.82,4.887-3.061,6.6c.5.159.926.288,1.35.43a.81.81,0,0,1,.35,1.422,2.271,2.271,0,0,1-.9.592,3.872,3.872,0,0,0-2.86,3.6,28.331,28.331,0,0,0-.046,4.048c0,.157.3.373.514.453,1.286.514,2.6.98,3.907,1.463a.18.18,0,0,1,.054.028l.754.795a4.058,4.058,0,0,1-.905.484q-19.6,4.771-39.192,9.5a2.572,2.572,0,0,1-1.34-.067Q17.19,53.268,4.019,48.973a4.272,4.272,0,0,1-2.5-2.189A12.427,12.427,0,0,1,.768,36.516,12.475,12.475,0,0,1,2,34.474Zm31.316-8.346c.028-.314.057-.53.064-.746.08-2.446.126-4.887.257-7.338.033-.658-.177-.892-.772-1.085Q20.315,12.906,7.789,8.806a1.924,1.924,0,0,0-2.726,1.309,10.384,10.384,0,0,0,.105,6.494,3.4,3.4,0,0,0,2.616,2.4c6.337,1.713,12.649,3.516,18.961,5.285ZM31.073,53.88c.021-.177.041-.3.046-.414.085-2.626.157-5.255.257-7.881a.685.685,0,0,0-.579-.805Q18.19,40.688,5.577,36.568a1.933,1.933,0,0,0-2.788,1.379,9.951,9.951,0,0,0,.422,7.1A2.618,2.618,0,0,0,4.97,46.588q10.6,2.942,21.183,5.916Zm9.735-13.889c.183-.046.3-.072.409-.1L51.49,37.01c5-1.4,9.99-2.829,15-4.185a3.218,3.218,0,0,0,2.392-2.153,7.4,7.4,0,0,0,.388-1.335,10.191,10.191,0,0,0-.231-5.442,1.916,1.916,0,0,0-2.623-1.242c-.733.231-1.461.476-2.191.715q-11.574,3.776-23.148,7.546c-.355.116-.584.219-.566.689.105,2.526.167,5.054.257,7.582a5.956,5.956,0,0,0,.039.81ZM34.939,26.079c.108-.021.285-.044.455-.087q15.676-3.879,31.35-7.773c.586-.144.71-.34.64-.928a13.672,13.672,0,0,1,.185-5.121c.136-.535.345-1.052.538-1.628-.291.049-.53.082-.772.129L46.5,14.966c-3.578.736-7.155,1.489-10.756,2.184-.581.116-.741.355-.733.916.013,1.07-.069,2.142-.082,3.212-.005,1.574.008,3.151.008,4.807Zm4.305,13.914c.046-.087.082-.123.082-.157-.08-2.77-.157-5.543-.257-8.313,0-.141-.226-.355-.386-.4-.622-.167-1.26-.28-1.9-.412L8.923,24.991c-.957-.2-1.916-.388-2.973-.6A12.482,12.482,0,0,1,6.722,31.4c-.046.424.1.543.484.638q14.244,3.529,28.482,7.086,1.782.444,3.557.874ZM32.557,53.9l32.453-8.068c0-1.366-.09-2.623.026-3.858s.437-2.423.669-3.642a1.926,1.926,0,0,0-.257.046c-4.63.946-9.272,1.875-13.889,2.852A65.972,65.972,0,0,0,42.02,43.5a2.568,2.568,0,0,1-2.045.177.772.772,0,0,0-.414,0c-2.058.419-4.115.849-6.173,1.253a.593.593,0,0,0-.563.682c-.057,2.546-.149,5.1-.229,7.641a3.458,3.458,0,0,0-.031.648Z" transform="translate(0.005 0.008)" fill="#0c1e2d"/>
      </g>
    </g>
  </g>
</svg>
