<svg xmlns="http://www.w3.org/2000/svg" width="159.068" height="57.817" viewBox="0 0 159.068 57.817">
  <g id="Group_20" data-name="Group 20" transform="translate(-432.932 -612)">
    <text id="Rp1000_per_kg" data-name="Rp1000
per kg" transform="translate(520 634)" fill="#0c1e2d" font-size="20" font-family="SegoeUI-Bold, Segoe UI" font-weight="700"><tspan x="0" y="0">Rp1000</tspan><tspan font-size="13" font-family="SegoeUI, Segoe UI" font-weight="400"><tspan x="0" y="19">per kg</tspan></tspan></text>
    <g id="Layer_2" data-name="Layer 2" transform="translate(432.932 619.667)">
      <g id="Layer_1" data-name="Layer 1" transform="translate(0 0)">
        <path id="Path_14" data-name="Path 14" d="M80.148,49.2a8.085,8.085,0,0,1-2.5.9q-27.774.078-55.547.039c-2.137,0-2.362-.206-2.674-2.346A4.936,4.936,0,0,0,14.755,43.5c-1.2-.067-2.407.033-3.6-.089A8.344,8.344,0,0,1,3.605,33.9c.9-7.872,1.745-15.75,2.635-23.831a30.159,30.159,0,0,1-3.726-.039,12.012,12.012,0,0,1-2.5-.9V7.567a10.276,10.276,0,0,1,2.716-.815c8.445-.064,16.891-.039,25.336-.039h1.761c.122-.242.211-.337.206-.42C29.7,2.471,31.977-.339,36.613.034c1.606.128,3.231,0,4.847.025,3.231.039,5.32,2.048,5.231,5.287-.042,1.608.392,2.285,2.009,2.783A27.08,27.08,0,0,1,64.654,20.9c4.839,8.392,9.639,16.807,14.47,25.208.3.529.685,1.013,1.03,1.519ZM66,30.034c-1.514-2.657-2.888-5.209-4.394-7.683-4.622-7.588-11.428-11.888-20.272-12.182-9.948-.334-19.915-.086-29.872-.1a1.87,1.87,0,0,0-2.106,1.948c-.57,5.443-1.194,10.877-1.781,16.32a15.146,15.146,0,0,0,0,1.628h5.813c0-2.685-.017-5.237,0-7.791.028-3.442,2-5.429,5.457-5.446q7.9-.042,15.8,0c5.22.028,8.724,3.537,8.788,8.743.017,1.494,0,2.989,0,4.552Zm5.824,10.09c-1.113-1.962-2.134-3.6-3.011-5.309a2.243,2.243,0,0,0-2.3-1.391q-29.026.058-58.049.031c-.5,0-1,.053-1.472.081-.406,4.408,1.536,6.575,5.755,6.575H71.822ZM40.077,30.106c0-1.828.039-3.439,0-5.051a4.923,4.923,0,0,0-5.009-4.95c-5.423-.047-10.852,0-16.276-.022a1.845,1.845,0,0,0-2.106,2.1c0,1.931-.028,3.862,0,5.791.028,1.583.6,2.118,2.226,2.123,3.862.017,7.722,0,11.581,0ZM21.345,43.482a7.4,7.4,0,0,1,.646,1.327c.362,1.784,1.492,2.02,3.144,2.012,16.159-.064,32.321-.039,48.482-.039h1.8c-.7-2.5-1.97-3.4-4.533-3.375-15.847.15-31.7.075-47.544.075ZM33.51,6.715h9.812c.306-2.819-.109-3.3-2.824-3.3H36.274C33.6,3.415,33.3,3.743,33.51,6.715Z" transform="translate(-0.01 -0.001)" fill="#0c1e2d"/>
      </g>
    </g>
  </g>
</svg>
