<svg xmlns="http://www.w3.org/2000/svg" width="145" height="72.171" viewBox="0 0 145 72.171">
  <g id="Group_22" data-name="Group 22" transform="translate(-943 -606.979)">
    <text id="Rp400_per_kg" data-name="Rp400
per kg" transform="translate(1028 632)" fill="#0c1e2d" font-size="20" font-family="SegoeUI-Bold, Segoe UI" font-weight="700"><tspan x="0" y="0">Rp400</tspan><tspan font-size="13" font-family="SegoeUI, Segoe UI" font-weight="400"><tspan x="0" y="19">per kg</tspan></tspan></text>
    <g id="Layer_2" data-name="Layer 2" transform="translate(943 606.979)">
      <g id="Layer_1" data-name="Layer 1" transform="translate(0 0)">
        <path id="Path_16" data-name="Path 16" d="M38.984,10.706l4.978-7.833c.475-.748.94-1.507,1.432-2.245A1.072,1.072,0,0,1,47.041.166L76.879,14.321c1.045.5,1.159.91.513,1.891q-3.339,5.021-6.7,10.029a.824.824,0,0,0,0,1.1q3.293,4.911,6.542,9.851c.727,1.1.624,1.434-.6,2-1.961.916-3.917,1.848-5.891,2.731a.916.916,0,0,0-.637,1c.051,4.468.054,8.933.119,13.4a1.673,1.673,0,0,1-1.1,1.794C59.424,62.636,49.743,67.155,40.1,71.78a2.818,2.818,0,0,1-2.782-.038Q23,64.959,8.642,58.266a1.794,1.794,0,0,1-1.186-1.929c.086-4.438.095-8.879.165-13.319a1.022,1.022,0,0,0-.7-1.116c-1.985-.875-3.938-1.812-5.9-2.731-1.213-.567-1.3-.883-.54-2.02,2.215-3.3,4.4-6.61,6.618-9.9a.867.867,0,0,0,0-1.156Q3.739,21.1.408,16.068c-.651-.978-.54-1.351.54-1.867Q15.74,7.238,30.543.28C31.623-.231,31.931-.136,32.6.9l5.916,9.135C38.625,10.234,38.776,10.409,38.984,10.706ZM10.854,26.792c.154.092.232.151.321.192q13.673,6.372,27.379,12.731a1.256,1.256,0,0,0,.926-.046q13.506-6.313,26.982-12.663c.194-.092.375-.208.629-.351-.221-.113-.357-.189-.5-.254Q53.052,20.093,39.5,13.8a1.532,1.532,0,0,0-1.14.043q-13.436,6.272-26.842,12.6C11.308,26.533,11.113,26.651,10.854,26.792ZM68.521,43.137c-.324.127-.519.189-.7.27q-10.337,4.846-20.672,9.7c-1,.467-1.162.448-1.783-.492-1.653-2.5-3.285-5.024-4.927-7.534-.116-.178-.254-.343-.44-.589V69.884c.246-.1.416-.154.578-.23q13.684-6.467,27.371-12.922a.881.881,0,0,0,.586-.948c-.019-2.9,0-5.8,0-8.7ZM37.855,44.522c-.27.392-.421.594-.556.81l-4.765,7.458c-.513.81-.746.867-1.591.473L13.285,45.014c-1.243-.581-2.49-1.156-3.8-1.764a3.208,3.208,0,0,0-.076.459c-.035,4.1-.076,8.2-.073,12.307a1.021,1.021,0,0,0,.54.7q13.654,6.542,27.33,13.047c.194.092.4.157.648.251Zm37.838-28.8L46.75,2.106c-2.215,3.366-4.376,6.648-6.561,9.973L69,25.7ZM2.41,37.786a1.648,1.648,0,0,0,.194.178q14.084,6.629,28.162,13.268c.5.235.673.043.913-.335q2.912-4.592,5.851-9.184c.065-.1.108-.219.181-.365L8.933,27.889Zm66.468-9.9L40.18,41.392c2.226,3.39,4.387,6.707,6.548,10.054l28.827-13.6C73.3,34.479,71.114,31.214,68.878,27.886ZM31.186,2.106,2.245,15.6l6.691,9.97L37.628,12.195Z" transform="translate(0.003 0.042)" fill="#0c1e2d"/>
      </g>
    </g>
  </g>
</svg>
