<svg xmlns="http://www.w3.org/2000/svg" width="50" height="50" viewBox="0 0 50 50">
  <g id="Layer_5" data-name="Layer 5" transform="translate(0 -0.05)">
    <g id="Layer_1" data-name="Layer 1" transform="translate(0 0.05)">
      <path id="Path_65" data-name="Path 65" d="M26.924,50.05H23.076c-.5-.087-1.007-.188-1.517-.254A24.947,24.947,0,0,1,.729,30.946C.424,29.637.24,28.292,0,26.966V23.117a5.118,5.118,0,0,0,.139-.639A24.971,24.971,0,0,1,19.167.745c1.288-.3,2.608-.479,3.91-.695h3.847c.5.087,1.007.188,1.514.254A24.946,24.946,0,0,1,49.271,19.15c.306,1.313.49,2.654.729,3.984v3.831c-.087.507-.191,1.011-.253,1.521a24.977,24.977,0,0,1-18.771,20.82C29.639,49.616,28.274,49.807,26.924,50.05ZM36.958,16.358l-.194-.146c-.733.281-1.462.563-2.2.837a1.073,1.073,0,0,1-1.191-.226A4.819,4.819,0,0,0,25.847,18.5a15.415,15.415,0,0,0-.694,3.178,13.947,13.947,0,0,1-9.819-5.04c-1.26,1.928-.851,3.987,1.333,6.547l-2.083-.545a5.331,5.331,0,0,0,3.587,4.884H16.319a5.479,5.479,0,0,0,4.413,3.56,15.546,15.546,0,0,1-3.267,1.528,27.187,27.187,0,0,1-3.549.545A13.985,13.985,0,0,0,35.17,21.193a1.365,1.365,0,0,1,.531-1.118c.639-.559,1.194-1.212,1.785-1.827l-.132-.108-2.2.563Z" transform="translate(0 -0.05)" fill="#fff"/>
    </g>
  </g>
</svg>
